<?xml version="1.0" encoding="utf-8"?>
<!-- Generator: Adobe Illustrator 16.0.0, SVG Export Plug-In . SVG Version: 6.00 Build 0)  -->
<!DOCTYPE svg PUBLIC "-//W3C//DTD SVG 1.1//EN" "http://www.w3.org/Graphics/SVG/1.1/DTD/svg11.dtd">
<svg version="1.1" id="Layer_1" xmlns="http://www.w3.org/2000/svg" xmlns:xlink="http://www.w3.org/1999/xlink" x="0px" y="0px"
	 width="531.306px" height="74.328px" viewBox="3.744 0 531.306 74.328" enable-background="new 3.744 0 531.306 74.328"
	 xml:space="preserve">
<path fill="#FFFFFF" d="M164.074,47.753c6.081,8.598,11.979,16.937,18.21,25.75c-3.898,0-7.336,0.029-10.771-0.01
	c-2.983-0.033-8.069-0.174-8.816-0.48c0,0-3.508-4.487-5.174-6.875c-3.285-4.71-6.5-9.472-9.885-14.108
	c-0.563-0.771-1.817-1.385-2.791-1.446c-2.973-0.187-5.965-0.067-9.293-0.067c0,7.697,0,15.215,0,22.856c-5.463,0-10.581,0-15.872,0
	c0-23.882,0-47.658,0-71.475c0.22-0.094,0.442-0.273,0.662-0.271c11.65,0.132,23.309,0.087,34.947,0.537
	c3.655,0.142,7.407,1.233,10.857,2.562c7.31,2.812,10.703,8.821,11.303,16.276c0.329,4.091,0.104,8.35-0.669,12.38
	C175.453,40.338,171.025,45.026,164.074,47.753z M135.671,14.99c0,7.574,0,14.508,0,21.267c5.817,0,11.497,0.436,17.077-0.117
	c6.101-0.605,8.241-3.433,8.66-9.609c0.073-1.071,0.012-2.163-0.098-3.234c-0.408-4.001-2.217-6.625-6.169-7.095
	C148.747,15.441,142.271,15.364,135.671,14.99z"/>
<path fill="#FFFFFF" d="M369.885,74.15c-21.6-0.122-37.733-16.104-37.62-37.268c0.111-21.151,16.459-37.015,38.005-36.881
	c21.567,0.135,37.599,16.137,37.456,37.39C407.583,58.465,391.314,74.271,369.885,74.15z M391.363,36.988
	c-0.035-4.08-1.082-7.972-3.062-11.892c-6.462-12.78-23.426-15.17-33.047-4.82c-5.733,6.168-7.585,13.56-6.095,21.746
	c2.368,13.005,14.412,20.869,26.616,17.517c5.006-1.375,9.032-4.801,11.801-9.107c1.486-2.312,2.545-4.749,3.137-7.436
	C391.166,40.934,391.38,38.94,391.363,36.988z"/>
<path fill="#FFFFFF" d="M185.029,73.501c4.014-9.286,7.834-18.128,11.655-26.971c6.168-14.275,12.37-28.536,18.458-42.846
	c0.708-1.662,1.554-2.21,3.305-2.15c3.827,0.129,7.664-0.034,11.49,0.103c0.761,0.027,1.896,0.684,2.182,1.344
	c10.03,23.024,19.979,46.084,29.932,69.143c0.157,0.364,0.201,0.778,0.35,1.377c-5.311,0-10.459,0.056-15.603-0.072
	c-0.628-0.016-1.49-0.9-1.804-1.584c-1.799-3.931-3.531-7.896-5.141-11.907c-0.576-1.436-1.279-2.022-2.893-2.008
	c-8.744,0.082-17.49,0.085-26.234-0.003c-1.625-0.017-2.343,0.6-2.916,2.004c-1.632,4.004-3.333,7.982-5.146,11.906
	c-0.329,0.712-1.306,1.574-2.004,1.593C195.592,73.565,190.519,73.501,185.029,73.501z M223.884,22.836
	c-3.172,7.346-6.076,14.069-9.043,20.938c6.21,0,11.96,0,18.006,0C229.862,36.802,226.997,30.108,223.884,22.836z"/>
<path fill="#FFFFFF" d="M265.548,61.647c3.173-3.897,6.213-7.633,9.39-11.535c1.681,1.276,3.269,2.562,4.938,3.734
	c5.332,3.743,10.989,6.643,17.77,6.235c1.31-0.078,2.658-0.328,3.886-0.777c2.633-0.965,4.29-2.841,4.471-5.745
	c0.183-2.894-1.093-5.168-3.72-6.203c-3.774-1.487-7.741-2.484-11.561-3.868c-4.521-1.637-9.099-3.197-13.413-5.282
	c-4.237-2.048-6.73-5.761-7.937-10.367c-3.415-13.045,3.264-24.001,16.5-26.839c12.939-2.773,24.52,0.363,35.376,8.288
	c-2.765,3.988-5.431,7.835-8.134,11.733c-6.193-4.491-12.73-7.339-20.334-7.003c-4.293,0.188-7.313,2.649-7.618,6.133
	c-0.271,3.129,1.014,5.429,4.471,6.677c4.525,1.634,9.244,2.729,13.796,4.304c3.282,1.137,6.536,2.466,9.613,4.072
	c12.513,6.531,12.396,26.374,1.312,33.771c-9.851,6.574-20.38,6.361-31.143,3.274C276.552,70.338,270.85,66.592,265.548,61.647z"/>
<path fill="#FFFFFF" d="M437.308,45.267c0,5.001,0,9.648,0,14.297c0,4.559,0,9.118,0,13.807c-5.396,0-10.521,0-15.805,0
	c0-23.866,0-47.653,0-71.618c16.312,0,32.593,0,49.043,0c0,4.448,0,8.909,0,13.669c-10.869,0-21.815,0-33,0
	c0,5.308,0,10.326,0,15.723c10.398,0,20.831,0,31.563,0c0,4.502,0.011,8.639-0.005,12.775c-0.007,1.787-1.411,1.323-2.377,1.327
	c-8.749,0.033-17.498,0.02-26.247,0.021C439.507,45.267,438.531,45.267,437.308,45.267z"/>
<path fill="#FFFFFF" d="M111.655,1.574c-2.737,4.8-5.198,9.131-7.672,13.454c-5.371,9.39-10.783,18.756-16.079,28.188
	c-0.691,1.232-1.102,2.792-1.118,4.207c-0.102,8.57-0.051,17.142-0.051,25.896c-5.326,0-10.511,0-15.958,0
	c0-4.709,0.083-8.148,0.083-13.981c0-5.129-0.047-10.428-1.396-15.415c-1.772-6.542-6.338-12.911-9.684-18.769
	c-3.998-7.004-8.297-13.833-12.297-20.836c-0.441-0.774-0.84-1.573-1.455-2.732c5.713,0,11.082-0.06,16.444,0.082
	c0.617,0.017,1.356,1.062,1.781,1.784c4.342,7.389,8.629,14.812,12.938,22.22c0.449,0.771,0.942,1.519,1.572,2.529
	c0.585-0.9,1.045-1.545,1.44-2.226c4.312-7.407,8.687-14.78,12.868-22.261c0.965-1.726,2.032-2.235,3.908-2.184
	C101.71,1.66,106.445,1.574,111.655,1.574z"/>
<path fill="#FFFFFF" d="M514.807,73.425c-5.536,0-10.603,0-15.939,0c0-19.265,0-38.455,0-57.915c-6.883,0-13.501,0-20.304,0
	c0-4.714,0-9.16,0-13.771c18.803,0,37.573,0,56.486,0c0,4.501,0,8.95,0,13.656c-6.711,0-13.336,0-20.243,0
	C514.807,34.839,514.807,54.029,514.807,73.425z"/>
<path fill="#FFFFFF" d="M3.744,73.321c0-23.893,0-47.619,0-71.546c5.216,0,10.398,0,15.848,0c0,19.06,0,38.09,0,57.427
	c10.284,0,20.312,0,30.491,0c0,4.85,0,9.394,0,14.119C34.733,73.321,19.376,73.321,3.744,73.321z"/>
</svg>
