<?xml version="1.0" encoding="utf-8"?>
<!-- Generator: Adobe Illustrator 16.0.0, SVG Export Plug-In . SVG Version: 6.00 Build 0)  -->
<!DOCTYPE svg PUBLIC "-//W3C//DTD SVG 1.1//EN" "http://www.w3.org/Graphics/SVG/1.1/DTD/svg11.dtd">
<svg version="1.1" id="Layer_1" xmlns="http://www.w3.org/2000/svg" xmlns:xlink="http://www.w3.org/1999/xlink" x="0px" y="0px"
	 width="1683.779px" height="595.279px" viewBox="0 0 1683.779 595.279" enable-background="new 0 0 1683.779 595.279"
	 xml:space="preserve">
<rect x="0" fill="#334D5C" width="1683.779" height="595.276"/>
<polygon fill="#DBBB00" points="143.246,76.493 121.877,75.739 115.163,56.089 108.45,75.739 87.081,76.493 104.302,88.508 
	97.806,109.506 115.163,96.4 132.518,109.506 126.025,88.508 "/>
<polygon fill="#DBBB00" points="121.981,81.319 125.662,67.354 114.029,75.913 101.404,68.113 106.43,81.807 94.629,91.418 
	109.685,90.854 114.701,105.064 119.299,90.553 133.881,90.19 "/>
<polygon fill="#DBBB00" points="293.006,212.684 271.637,211.93 264.924,192.281 258.211,211.93 236.842,212.684 254.062,224.699 
	247.568,245.697 264.924,232.591 282.28,245.697 275.787,224.699 "/>
<polygon fill="#DBBB00" points="271.742,217.513 275.424,203.546 263.79,212.105 251.164,204.306 256.192,217.997 244.389,227.609 
	259.447,227.046 264.462,241.255 269.059,226.745 283.641,226.381 "/>
<polygon fill="#DBBB00" points="495.337,120.506 473.968,119.753 467.255,100.103 460.537,119.753 439.173,120.506 456.392,132.522 
	449.898,153.52 467.255,140.415 484.611,153.52 478.115,132.522 "/>
<polygon fill="#DBBB00" points="474.073,125.334 477.753,111.368 466.117,119.927 453.49,112.127 458.523,125.82 446.72,135.433 
	461.777,134.868 466.789,149.078 471.39,134.567 485.972,134.204 "/>
<polygon fill="#DBBB00" points="87.081,318.043 65.712,317.29 58.999,297.64 52.284,317.29 30.917,318.043 48.135,330.06 
	41.641,351.056 58.999,337.951 76.354,351.056 69.86,330.06 "/>
<polygon fill="#DBBB00" points="65.817,322.871 69.497,308.903 57.864,317.463 45.237,309.664 50.266,323.356 38.464,332.97 
	53.52,332.403 58.536,346.615 63.134,332.104 77.716,331.741 "/>
<polygon fill="#DBBB00" points="236.842,469.705 215.472,468.951 208.76,449.302 202.045,468.951 180.677,469.705 197.896,481.721 
	191.402,502.719 208.76,489.613 226.115,502.719 219.621,481.721 "/>
<polygon fill="#DBBB00" points="215.578,474.533 219.258,460.566 207.625,469.125 194.998,461.326 200.027,475.02 188.224,484.632 
	203.281,484.066 208.297,498.277 212.894,483.766 227.476,483.402 "/>
<polygon fill="#DBBB00" points="459.487,367.019 438.115,366.265 431.405,346.615 424.69,366.265 403.323,367.019 420.538,379.034 
	414.047,400.032 431.405,386.926 448.76,400.032 442.266,379.034 "/>
<polygon fill="#DBBB00" points="438.223,371.847 441.903,357.879 430.27,366.438 417.643,358.64 422.672,372.333 410.866,381.944 
	425.926,381.379 430.942,395.59 435.536,381.079 450.118,380.715 "/>
<polygon fill="#DBBB00" points="714.474,42.67 693.105,41.917 686.392,22.267 679.677,41.917 658.31,42.67 675.529,54.686 
	669.031,75.684 686.392,62.579 703.744,75.684 697.253,54.686 "/>
<polygon fill="#DBBB00" points="693.21,47.499 696.89,33.532 685.257,42.09 672.63,34.292 677.656,47.985 665.857,57.597 
	680.91,57.032 685.929,71.243 690.527,56.731 705.109,56.368 "/>
<polygon fill="#DBBB00" points="665.857,234.95 644.488,234.196 637.775,214.546 631.06,234.196 609.693,234.95 626.908,246.965 
	620.416,267.963 637.775,254.858 655.13,267.963 648.636,246.965 "/>
<polygon fill="#DBBB00" points="644.593,239.778 648.273,225.811 636.64,234.37 624.013,226.571 629.041,240.264 617.24,249.876 
	632.296,249.311 637.312,263.522 641.906,249.01 656.49,248.647 "/>
<polygon fill="#DBBB00" points="800.2,427.552 778.831,426.798 772.118,407.149 765.406,426.798 744.036,427.552 761.256,439.568 
	754.762,460.566 772.118,447.46 789.476,460.566 782.982,439.568 "/>
<polygon fill="#DBBB00" points="778.939,432.38 782.616,418.413 770.986,426.972 758.359,419.173 763.387,432.867 751.585,442.479 
	766.642,441.913 771.656,456.125 776.254,441.613 790.837,441.249 "/>
<polygon fill="#DBBB00" points="588.245,545.388 566.877,544.634 560.162,524.984 553.448,544.634 532.08,545.388 549.302,557.403 
	542.808,578.401 560.162,565.296 577.521,578.401 571.027,557.403 "/>
<polygon fill="#DBBB00" points="566.984,550.216 570.661,536.249 559.031,544.808 546.404,537.009 551.433,550.702 539.629,560.314 
	554.687,559.749 559.7,573.96 564.299,559.448 578.881,559.085 "/>
<polygon fill="#DBBB00" points="985.137,76.493 963.768,75.739 957.054,56.089 950.341,75.739 928.972,76.493 946.193,88.508 
	939.697,109.506 957.054,96.4 974.406,109.506 967.913,88.508 "/>
<polygon fill="#DBBB00" points="963.869,81.319 967.553,67.354 955.919,75.913 943.294,68.113 948.321,81.807 936.52,91.418 
	951.573,90.854 956.592,105.064 961.19,90.553 975.772,90.19 "/>
<polygon fill="#DBBB00" points="1199.528,219.506 1178.156,218.752 1171.446,199.103 1164.733,218.752 1143.364,219.506 
	1160.582,231.521 1154.089,252.519 1171.446,239.413 1188.801,252.519 1182.309,231.521 "/>
<polygon fill="#DBBB00" points="1178.264,224.335 1181.946,210.368 1170.312,218.927 1157.686,211.128 1162.713,224.819 
	1150.908,234.431 1165.968,233.868 1170.984,248.077 1175.578,233.567 1190.16,233.203 "/>
<polygon fill="#DBBB00" points="1316.693,49.783 1295.323,49.03 1288.611,29.38 1281.895,49.03 1260.529,49.783 1277.745,61.799 
	1271.253,82.797 1288.611,69.692 1305.966,82.797 1299.471,61.799 "/>
<polygon fill="#DBBB00" points="1295.428,54.611 1299.109,40.646 1287.475,49.204 1274.848,41.404 1279.878,55.097 1268.073,64.71 
	1283.132,64.146 1288.147,78.355 1292.743,63.844 1307.325,63.481 "/>
<polygon fill="#DBBB00" points="964.602,302.599 943.233,301.847 936.52,282.196 929.805,301.847 908.438,302.599 925.656,314.615 
	919.159,335.61 936.52,322.507 953.872,335.61 947.38,314.615 "/>
<polygon fill="#DBBB00" points="943.337,307.427 947.018,293.459 935.384,302.019 922.757,294.22 927.784,307.912 915.985,317.524 
	931.038,316.959 936.057,331.171 940.655,316.66 955.237,316.297 "/>
<polygon fill="#DBBB00" points="1106.816,518.68 1085.446,517.926 1078.734,498.276 1072.019,517.926 1050.651,518.68 
	1067.867,530.695 1061.375,551.693 1078.734,538.588 1096.089,551.693 1089.595,530.695 "/>
<polygon fill="#DBBB00" points="1085.552,523.508 1089.232,509.541 1077.599,518.1 1064.972,510.301 1070,523.994 1058.198,533.606 
	1073.254,533.041 1078.271,547.252 1082.865,532.74 1097.448,532.377 "/>
<polygon fill="#DBBB00" points="1301.377,367.019 1280.007,366.265 1273.295,346.615 1266.578,366.265 1245.213,367.019 
	1262.431,379.034 1255.938,400.032 1273.295,386.926 1290.651,400.032 1284.156,379.034 "/>
<polygon fill="#DBBB00" points="1280.114,371.847 1283.793,357.879 1272.158,366.438 1259.531,358.64 1264.563,372.333 
	1252.759,381.944 1267.817,381.379 1272.832,395.59 1277.429,381.079 1292.011,380.715 "/>
<polygon fill="#DBBB00" points="1623.375,42.67 1602.007,41.917 1595.293,22.267 1588.577,41.917 1567.212,42.67 1584.431,54.686 
	1577.936,75.684 1595.293,62.579 1612.649,75.684 1606.156,54.686 "/>
<polygon fill="#DBBB00" points="1602.113,47.499 1605.791,33.532 1594.157,42.09 1581.531,34.292 1586.561,47.985 1574.759,57.597 
	1589.815,57.032 1594.829,71.243 1599.429,56.731 1614.011,56.368 "/>
<polygon fill="#DBBB00" points="1507.745,234.95 1486.378,234.196 1479.663,214.546 1472.948,234.196 1451.582,234.95 
	1468.801,246.965 1462.307,267.963 1479.663,254.858 1497.021,267.963 1490.527,246.965 "/>
<polygon fill="#DBBB00" points="1486.484,239.778 1490.161,225.811 1478.531,234.37 1465.904,226.571 1470.932,240.264 
	1459.13,249.876 1474.187,249.311 1479.2,263.522 1483.799,249.01 1498.381,248.647 "/>
<polygon fill="#DBBB00" points="1643.909,393.726 1622.541,392.972 1615.827,373.323 1609.115,392.972 1587.745,393.726 
	1604.965,405.742 1598.471,426.74 1615.827,413.634 1633.185,426.74 1626.691,405.742 "/>
<polygon fill="#DBBB00" points="1622.648,398.554 1626.325,384.587 1614.695,393.146 1602.068,385.347 1607.096,399.041 
	1595.293,408.653 1610.351,408.087 1615.365,422.299 1619.963,407.787 1634.546,407.423 "/>
<polygon fill="#DBBB00" points="1459.13,518.68 1437.76,517.926 1431.047,498.276 1424.332,517.926 1402.965,518.68 
	1420.185,530.695 1413.691,551.693 1431.047,538.588 1448.404,551.693 1441.907,530.695 "/>
<polygon fill="#DBBB00" points="1437.865,523.508 1441.546,509.541 1429.911,518.1 1417.284,510.301 1422.316,523.994 
	1410.512,533.606 1425.57,533.041 1430.584,547.252 1435.182,532.74 1449.764,532.377 "/>
</svg>
