<?xml version="1.0" encoding="utf-8"?>
<!-- Generator: Adobe Illustrator 16.0.0, SVG Export Plug-In . SVG Version: 6.00 Build 0)  -->
<!DOCTYPE svg PUBLIC "-//W3C//DTD SVG 1.1//EN" "http://www.w3.org/Graphics/SVG/1.1/DTD/svg11.dtd">
<svg version="1.1" id="Layer_1" xmlns="http://www.w3.org/2000/svg" xmlns:xlink="http://www.w3.org/1999/xlink" x="0px" y="0px"
	 width="595.279px" height="841.891px" viewBox="0 0 595.279 841.891" enable-background="new 0 0 595.279 841.891"
	 xml:space="preserve">
<path fill="#E17A2D" d="M136.312,420.028c-19.389,0-97.912,14.081-97.912,14.081s79.044,14.312,97.912,14.312
	c9.706,0,10.096-7.119,10.082-14.228C146.38,427.105,145.99,420.028,136.312,420.028z"/>
<path fill="#F4E028" d="M135.967,424.142c-13.771,0-69.544,10.001-69.544,10.001s56.143,10.166,69.544,10.166
	c6.885,0,5.872-5.042,5.872-10.084S142.852,424.142,135.967,424.142z"/>
<path fill="#FFFFFF" d="M134.234,428.168c-8.273,0-41.781,6.008-41.781,6.008s33.729,6.107,41.781,6.107
	c4.136,0,1.748-3.029,1.748-6.059C135.982,431.196,138.369,428.168,134.234,428.168z"/>
<path fill="#DFEADC" d="M396.138,359.324c-20.239-3.271-45.592-4.399-64.788,1.6c-19.196,5.999-41.192,20.795-49.591,29.194
	l-112.202,6.465l-11.575-6.765c-0.947,7.266-0.126,22.547-0.126,30.868c0,44.331,0.626,60.816,0.626,60.816
	s5.479-5.395,12.997-4.899c18.997,1.25,55.75,7.1,89.956,7.1c75.625,0,119.521,5.759,180.494-1.8
	c72.587-8.998,97.285-36.594,97.285-44.992C539.214,428.526,482.722,373.322,396.138,359.324z"/>
<path fill="#9FC9BF" d="M535.969,430.883c-8.753,11.664-36.186,23.651-94.04,30.823c-60.974,7.559-104.869,1.8-180.494,1.8
	c-48.741,0-99.276-8.646-99.276-8.646l-3.489,27.38c0,0,4.748-6.214,12.528-5.193c18.755,2.46,55.787,6.655,90.237,6.655
	c75.625,0,119.521,5.759,180.494-1.8c72.587-8.999,97.285-36.594,97.285-44.992C539.214,435.738,538.107,433.647,535.969,430.883z"
	/>
<path fill="#878E8C" d="M169.27,396.416l-11.288-6.596c-0.947,7.266-0.126,22.547-0.126,30.868c0,44.33,0.626,60.815,0.626,60.815
	s4.664-4.575,11.282-4.902C174.498,440.976,170.977,408.568,169.27,396.416z"/>
<path fill="#EA6307" d="M281.781,388.448c-1.283-21.457-13.207-37.703-22.983-47.554c-13.111-13.208-27.951-20.778-37.468-23.457
	c-7.144-2.011-12.539-1.735-15.196,0.775c-2.158,2.042-3.084,4.37-2.906,7.329c0.214,3.571,1.974,7.744,4.408,13.52
	c4.564,10.82,11.459,27.17,13.005,53.04c0.034,0.592,0.063,1.177,0.092,1.761l61.124-3.65
	C281.838,389.625,281.814,389.038,281.781,388.448z"/>
<path fill="#686868" d="M478.429,387.267c-29.473,24.524-85.021,12.155-85.021,12.155s-4.306-12.555,4.23-26.905
	c3.149-5.292,6.751-9.322,8.693-11.323c-1.891-0.385-3.796-0.756-5.719-1.103c-2.197,2.262-6.286,6.832-9.861,12.839
	c-9.669,16.25-4.791,30.47-4.791,30.47s63.172,14.067,96.496-13.942C481.134,388.724,479.789,387.993,478.429,387.267z"/>
<path fill="#969696" d="M406.331,361.195c-1.942,2.001-5.544,6.031-8.693,11.324c-8.536,14.349-4.23,26.905-4.23,26.905
	s55.549,12.368,85.021-12.155C458.408,376.58,434.062,366.843,406.331,361.195z"/>
<path fill="#EA6307" d="M221.167,470.448c-0.254,11.146-6.002,18.5-9.834,23.403c-1.991,2.545-3.429,4.383-3.429,5.835l0,0
	c0,1.124,0.87,1.95,2.736,2.597c2.387,0.827,7.168,0.761,13.827-0.196c9.862-1.417,25.145-5.055,38.456-11.019
	c9.904-4.438,21.657-11.573,22.289-20.62H221.167z"/>
<path fill="#CE5800" d="M497.299,398.36c-9.729,17.432-21.099,45.14-18.702,76.568c44.485-11.915,60.616-31.232,60.616-38.019
	C539.214,432.562,524.011,415.618,497.299,398.36z"/>
<path fill="#EA6307" d="M502.081,401.526c-8.818,14.671-21.035,41.308-17.057,71.574c39.622-11.975,54.188-29.741,54.188-36.19
	C539.214,432.829,525.818,417.646,502.081,401.526z"/>
<ellipse fill="#9EAFAA" cx="157.986" cy="436.158" rx="6.629" ry="46.342"/>
<ellipse fill="#818785" cx="157.986" cy="436.158" rx="3.799" ry="18.574"/>
<path fill="#696B6A" d="M157.982,417.587c-2.098,0-2.098,37.147,0,37.147c2.096,0,3.799-8.315,3.799-18.573
	S160.077,417.587,157.982,417.587z"/>
</svg>
